<!-- Generated by IcoMoon.io -->
<svg version="1.1" xmlns="http://www.w3.org/2000/svg" width="768" height="768" viewBox="0 0 768 768">
<title></title>
<g id="icomoon-ignore">
</g>
<path d="M173.472 662.4c8.448 15.776 24.928 25.632 42.848 25.6 7.552 0.032 15.040-1.728 21.76-5.12l145.664-76.16c0.384-0.224 0.832-0.352 1.28-0.32l144.672 75.52c7.008 3.776 14.848 5.728 22.784 5.696 2.528 0 5.088-0.224 7.584-0.576 26.048-4.256 43.84-28.64 40-54.72l-28.16-160.319c-0.157-0.227-0.205-0.243-0.217-0.268-0.007-0.013-0.007-0.023-0.007-0.051 0-0.096 0.224-0.32 0.224-0.32l117.44-113.6c17.344-16.736 19.552-43.712 5.12-63.040-7.84-10.112-19.328-16.768-32-18.56l-161.984-23.36c-0.288 0-0.608-0.32-0.928-0.64l-72.352-145.28c-8.16-16.416-24.864-26.784-43.2-26.88-5.312 0-10.624 0.832-15.68 2.56-12.128 4.128-22.144 12.832-27.84 24.32l-72.256 144.864c0 0.672-0.672 0.96-1.312 0.96l-161.6 23.36c-9.888 1.664-19.104 6.080-26.56 12.8-9.44 9.248-14.752 21.952-14.752 35.2 0.032 12.576 5.088 24.608 14.080 33.376l118.4 113.92c0.256 0.256 0.352 0.608 0.352 0.96l-28.512 159.68c-1.696 10.432 0.128 21.12 5.152 30.4zM383.078 126.943l0.32-0.224h0.608l0.288 0.288c0.288 0 0.544 0.064 0.768 0.256 0.192 0.192 0.288 0.448 0.256 0.736l72.32 144.608c6.944 14.24 20.448 24.16 36.128 26.56l161.984 23.553c0.288 0 0.576 0.064 0.832 0.192 0.16 0.032 0.288 0.032 0.448 0l0.32 0.288-0.32 0.704-117.44 113.888c-11.68 10.944-16.896 27.136-13.792 42.848l28.192 159.392-0.64 0.608h-0.672c-0.128 0.064-0.256 0.064-0.384 0-0.32-0.032-0.64-0.16-0.928-0.32h-0.288l-144-75.2c-6.912-3.584-14.592-5.504-22.4-5.472-8.032 0-15.968 2.016-23.072 5.792l-144.928 76c-0.16 0.032-0.352 0.032-0.512 0-0.672 0-1.248-0.448-1.409-1.088v-0.64l28.16-159.36c2.624-15.584-2.496-31.488-13.76-42.56l-118.4-113.6c-0.032-0.48 0.032-0.896 0.288-1.312l1.952-0.64 160.96-23.073c15.68-2.432 29.153-12.32 36.128-26.56l72.352-144.96c0.16-0.288 0.352-0.544 0.64-0.704z"></path>
</svg>
